<svg width="305" height="173" viewBox="0 0 305 173" fill="none" xmlns="http://www.w3.org/2000/svg">
<path d="M179 82.6793H78V150.481H179V82.6793Z" fill="white" stroke="black" stroke-width="1.34353"/>
<path d="M87.2919 93.8783C88.4996 93.4115 89.1003 92.054 88.6335 90.8463C88.1668 89.6385 86.8093 89.0378 85.6015 89.5046C84.3938 89.9713 83.7931 91.3288 84.2598 92.5366C84.7266 93.7443 86.0841 94.345 87.2919 93.8783Z" fill="black"/>
<path d="M94.6258 93.8763C95.8336 93.4095 96.4342 92.0521 95.9675 90.8443C95.5007 89.6366 94.1433 89.0359 92.9355 89.5026C91.7278 89.9694 91.1271 91.3269 91.5938 92.5346C92.0606 93.7424 93.4181 94.3431 94.6258 93.8763Z" fill="black"/>
<path d="M101.96 93.8786C103.168 93.4119 103.768 92.0544 103.301 90.8466C102.835 89.6389 101.477 89.0382 100.269 89.505C99.0618 89.9717 98.4611 91.3292 98.9278 92.5369C99.3946 93.7447 100.752 94.3454 101.96 93.8786Z" fill="black"/>
<path d="M172.914 97.0819H83.7773V144.099H172.914V97.0819Z" fill="#070808"/>
<path d="M128.719 100.965C124.905 100.966 121.177 102.098 118.006 104.218C114.835 106.338 112.364 109.351 110.906 112.875C109.447 116.399 109.066 120.277 109.811 124.018C110.556 127.759 112.393 131.194 115.091 133.891C117.788 136.588 121.225 138.424 124.966 139.167C128.707 139.911 132.584 139.529 136.108 138.069C139.632 136.609 142.643 134.137 144.762 130.965C146.881 127.794 148.012 124.065 148.012 120.251C148.012 117.718 147.513 115.209 146.544 112.869C145.574 110.529 144.153 108.402 142.361 106.611C140.569 104.82 138.443 103.4 136.102 102.431C133.761 101.462 131.252 100.964 128.719 100.965Z" fill="black"/>
<path d="M128.719 102.12C132.332 102.111 135.864 103.191 138.856 105.217C139.822 105.866 140.722 106.608 141.543 107.434C142.365 108.256 143.105 109.156 143.753 110.121C144.411 111.089 144.971 112.119 145.426 113.198C146.365 115.431 146.848 117.829 146.848 120.251C146.848 122.674 146.365 125.072 145.426 127.305C144.972 128.386 144.412 129.419 143.753 130.388C143.105 131.353 142.365 132.253 141.543 133.075C140.722 133.901 139.822 134.643 138.856 135.292C136.359 136.971 133.483 138.003 130.488 138.293C127.493 138.584 124.472 138.125 121.699 136.958C119.545 136.047 117.588 134.729 115.935 133.075C114.281 131.421 112.96 129.464 112.046 127.311C111.107 125.078 110.623 122.68 110.623 120.258C110.623 117.835 111.107 115.437 112.046 113.204C113.424 109.968 115.705 107.198 118.615 105.224C119.587 104.568 120.62 104.008 121.699 103.551C123.93 102.606 126.329 102.122 128.752 102.127" fill="white"/>
<path d="M112.65 120.251C112.65 123.268 113.498 126.224 115.098 128.782C116.698 131.34 118.986 133.396 121.699 134.714L114.041 113.708C113.122 115.767 112.648 117.997 112.65 120.251ZM139.575 119.438C139.547 117.864 139.082 116.329 138.231 115.005C137.418 113.661 136.653 112.559 136.653 111.236C136.634 110.503 136.907 109.792 137.41 109.259C137.913 108.725 138.607 108.412 139.34 108.388H139.548C137.833 106.814 135.796 105.633 133.579 104.925C131.361 104.216 129.017 103.998 126.707 104.286C124.397 104.573 122.178 105.359 120.202 106.59C118.226 107.82 116.541 109.465 115.263 111.411H116.298C117.978 111.411 120.584 111.202 120.584 111.202C120.762 111.189 120.938 111.247 121.074 111.364C121.209 111.48 121.293 111.646 121.306 111.824C121.319 112.002 121.262 112.178 121.145 112.314C121.028 112.449 120.863 112.533 120.685 112.546C120.685 112.546 119.818 112.653 118.844 112.701L124.702 130.113L128.215 119.566L125.73 112.714C124.863 112.667 124.044 112.559 124.044 112.559C123.955 112.553 123.869 112.529 123.79 112.489C123.711 112.449 123.641 112.394 123.583 112.327C123.467 112.192 123.409 112.015 123.422 111.837C123.435 111.659 123.519 111.494 123.655 111.377C123.79 111.26 123.966 111.203 124.144 111.216C124.144 111.216 126.831 111.424 128.376 111.424C130.056 111.424 132.662 111.216 132.662 111.216C132.84 111.203 133.017 111.26 133.152 111.377C133.288 111.494 133.371 111.659 133.384 111.837C133.398 112.015 133.34 112.192 133.223 112.327C133.107 112.462 132.941 112.546 132.763 112.559C132.763 112.559 131.89 112.667 130.922 112.714L136.733 129.992L138.392 124.739C139.165 122.441 139.575 120.836 139.575 119.438ZM129.001 121.655L124.178 135.668C127.417 136.626 130.875 136.536 134.06 135.413C134.016 135.342 133.978 135.268 133.945 135.191L129.001 121.655ZM142.826 112.539C142.898 113.087 142.934 113.639 142.934 114.192C142.908 116.172 142.492 118.129 141.711 119.949L136.8 134.143C140.425 132.041 143.086 128.606 144.215 124.57C145.344 120.535 144.853 116.218 142.846 112.539H142.826Z" fill="black"/>
<path d="M175.117 78.7965H81.8828C79.7384 78.7965 78 80.5349 78 82.6793C78 84.8237 79.7384 86.5621 81.8828 86.5621H175.117C177.262 86.5621 179 84.8237 179 82.6793C179 80.5349 177.262 78.7965 175.117 78.7965Z" fill="white" stroke="black" stroke-width="1.34353"/>
<path d="M152.545 72.052C152.545 68.5627 151.754 65.1188 150.233 61.9786C148.711 58.8384 146.499 56.0834 143.761 53.9201C141.024 51.7568 137.832 50.2413 134.425 49.4874C131.018 48.7334 127.484 48.7605 124.09 49.5666C120.695 50.3728 117.526 51.937 114.822 54.142C112.118 56.3471 109.948 59.1357 108.475 62.2989C107.002 65.462 106.264 68.9176 106.317 72.4065C106.37 75.8954 107.212 79.3271 108.78 82.4442H150.073C151.703 79.2225 152.55 75.6622 152.545 72.052Z" fill="#070808"/>
<path d="M146.042 82.4442C148.423 78.6388 149.425 74.1312 148.881 69.6754C148.337 65.2196 146.279 61.0857 143.053 57.9651" stroke="white" stroke-width="0.671766" stroke-miterlimit="10"/>
<path d="M129.431 52.4565C125.958 52.455 122.546 53.3765 119.546 55.1265C116.546 56.8766 114.064 59.3924 112.356 62.4165C110.647 65.4406 109.773 68.8643 109.822 72.3373C109.872 75.8104 110.843 79.2079 112.637 82.1822" stroke="white" stroke-width="0.671766" stroke-miterlimit="10"/>
<path d="M83.2051 82.4442H173.793" stroke="black" stroke-width="1.34353"/>
<path d="M139.063 77.8291H127.502V81.685H139.063V77.8291Z" fill="white"/>
<path d="M139.063 70.124H127.502V73.98H139.063V70.124Z" fill="white"/>
<path d="M123.653 62.4188H119.797V81.6851H123.653V62.4188Z" fill="white"/>
<path d="M139.063 62.4188H127.502V66.2748H139.063V62.4188Z" fill="white"/>
</svg>
