<svg width="305" height="172" viewBox="0 0 305 172" fill="none" xmlns="http://www.w3.org/2000/svg">
<path d="M105.98 120.648C121.432 120.648 133.959 108.121 133.959 92.6687C133.959 77.2159 121.432 64.689 105.98 64.689C90.527 64.689 78 77.2159 78 92.6687C78 108.121 90.527 120.648 105.98 120.648Z" stroke="black" stroke-width="1.16927" stroke-miterlimit="10" stroke-dasharray="2.52 2.52"/>
<path d="M200.439 77.1794C213.978 77.1794 224.945 88.1559 224.945 101.685C224.945 111.788 218.83 120.464 210.096 124.22" stroke="black" stroke-width="1.16927" stroke-miterlimit="10" stroke-dasharray="2.52 2.52"/>
<path d="M202.73 73.7147H100.195V142.543H202.73V73.7147Z" fill="white" stroke="black" stroke-width="1.21527"/>
<path d="M110.978 81.2653C110.978 82.5852 109.911 83.643 108.6 83.643C107.29 83.643 106.223 82.5754 106.223 81.2653C106.223 79.9454 107.29 78.8875 108.6 78.8875C109.92 78.8778 110.978 79.9454 110.978 81.2653Z" fill="black"/>
<path d="M118.421 81.2653C118.421 82.5852 117.354 83.643 116.044 83.643C114.734 83.643 113.666 82.5754 113.666 81.2653C113.666 79.9454 114.734 78.8875 116.044 78.8875C117.364 78.8778 118.421 79.9454 118.421 81.2653Z" fill="black"/>
<path d="M125.866 81.2653C125.866 82.5852 124.798 83.643 123.488 83.643C122.178 83.643 121.11 82.5754 121.11 81.2653C121.11 79.9454 122.178 78.8875 123.488 78.8875C124.808 78.8778 125.866 79.9454 125.866 81.2653Z" fill="black"/>
<path d="M128.835 88.3597H106.213V135.895H128.835V88.3597Z" fill="black" stroke="white" stroke-width="0.607635" stroke-miterlimit="10"/>
<path d="M151.457 88.3597H128.835V135.895H151.457V88.3597Z" fill="black" stroke="white" stroke-width="0.607635" stroke-miterlimit="10"/>
<path d="M174.081 88.3597H151.458V135.895H174.081V88.3597Z" fill="black" stroke="white" stroke-width="0.607635" stroke-miterlimit="10"/>
<path d="M196.703 88.3597H174.08V135.895H196.703V88.3597Z" fill="black" stroke="white" stroke-width="0.607635" stroke-miterlimit="10"/>
<path d="M111.89 100.928H88.4912V124.327H111.89V100.928Z" fill="white" stroke="#070808" stroke-width="0.85065" stroke-miterlimit="10"/>
<path d="M107.304 117.108C106.75 116.99 106.256 116.693 105.801 115.565L101.192 104.192H99.2935L94.7244 115.387C94.2694 116.475 93.7551 116.97 93.0826 117.108L92.8848 117.148V118.038H97.4737V117.148L97.177 117.108C96.1683 116.97 95.8122 116.614 96.1881 115.645L96.7617 114.161H101.766L102.359 115.645C102.735 116.614 102.32 116.97 101.271 117.108L100.975 117.148V118.038H107.502V117.148L107.304 117.108ZM97.2166 112.994L99.2341 107.792L101.311 112.994H97.2166Z" fill="black"/>
<path d="M111.89 100.928H106.213V106.605H111.89V100.928Z" fill="white" stroke="#070808" stroke-width="0.85065" stroke-miterlimit="10"/>
<path d="M214.609 64H178.312V100.297H214.609V64Z" fill="white" stroke="#070808" stroke-width="0.85065" stroke-miterlimit="10"/>
<path d="M207.815 66.9601L211.493 71.0944" stroke="#070808" stroke-width="0.85065" stroke-miterlimit="10"/>
<path d="M211.493 66.9601L207.815 71.0944" stroke="#070808" stroke-width="0.85065" stroke-miterlimit="10"/>
<path d="M169.403 138.972H158.397V149.987H169.403V138.972Z" fill="white" stroke="#070808" stroke-width="0.607635" stroke-miterlimit="10"/>
<path d="M180.408 138.972H169.402V149.987H180.408V138.972Z" fill="white" stroke="#070808" stroke-width="0.607635" stroke-miterlimit="10"/>
<path d="M191.423 138.972H180.418V149.987H191.423V138.972Z" fill="#070808" stroke="#070808" stroke-width="0.607635" stroke-miterlimit="10"/>
<path d="M210.073 132.474L202.219 122.81L198.506 125.828L206.359 135.492L210.073 132.474Z" fill="#070808" stroke="#070808" stroke-width="0.607635" stroke-miterlimit="10"/>
<path d="M211.785 126.316L207.961 129.422L204.768 125.491L208.592 122.386C209.679 121.503 211.27 121.668 212.153 122.755C213.027 123.842 212.862 125.433 211.785 126.316Z" fill="#070808" stroke="#070808" stroke-width="0.607635" stroke-miterlimit="10"/>
<path d="M188.58 138.642L200.827 128.684L204.02 132.615L191.782 142.572C190.695 143.455 189.104 143.29 188.221 142.203C187.337 141.117 187.502 139.525 188.58 138.642Z" fill="white" stroke="#070808" stroke-width="0.607635" stroke-miterlimit="10"/>
<path d="M203.409 94.3769H189.502C187.716 94.3769 186.27 92.9309 186.27 91.1451C186.27 89.3594 187.716 87.9133 189.502 87.9133H203.409C205.195 87.9133 206.641 89.3594 206.641 91.1451C206.641 92.9309 205.195 94.3769 203.409 94.3769Z" fill="black"/>
</svg>
