<svg width="715" height="137" viewBox="0 0 715 137" fill="none" xmlns="http://www.w3.org/2000/svg">
<path d="M304.561 102.694C303.825 103.02 303.034 103.241 302.204 103.34C303.051 102.832 303.702 102.028 304.008 101.07C303.215 101.54 302.337 101.882 301.402 102.066C300.655 101.268 299.588 100.77 298.408 100.77C296.142 100.77 294.305 102.607 294.305 104.873C294.305 105.195 294.341 105.508 294.411 105.808C291.001 105.637 287.978 104.004 285.954 101.521C285.601 102.127 285.398 102.832 285.398 103.584C285.398 105.008 286.122 106.263 287.223 106.999C286.55 106.978 285.918 106.793 285.364 106.486C285.364 106.503 285.364 106.52 285.364 106.538C285.364 108.526 286.778 110.185 288.656 110.561C288.312 110.655 287.949 110.705 287.575 110.705C287.311 110.705 287.054 110.679 286.803 110.631C287.325 112.261 288.841 113.447 290.636 113.481C289.232 114.581 287.462 115.237 285.54 115.237C285.209 115.237 284.882 115.218 284.561 115.18C286.377 116.344 288.534 117.023 290.851 117.023C298.398 117.023 302.526 110.771 302.526 105.348C302.526 105.17 302.522 104.993 302.514 104.817C303.316 104.24 304.011 103.517 304.561 102.694Z" fill="#17191F"/>
<path d="M334.33 101.392C336.733 101.392 337.018 101.401 337.967 101.444C338.844 101.484 339.321 101.631 339.638 101.754C340.058 101.917 340.358 102.112 340.673 102.427C340.988 102.742 341.183 103.042 341.346 103.462C341.469 103.779 341.616 104.256 341.656 105.133C341.699 106.082 341.708 106.367 341.708 108.77C341.708 111.173 341.699 111.458 341.656 112.407C341.616 113.284 341.469 113.761 341.346 114.078C341.183 114.498 340.988 114.798 340.673 115.113C340.358 115.428 340.058 115.623 339.638 115.786C339.321 115.909 338.844 116.056 337.967 116.096C337.018 116.139 336.734 116.148 334.33 116.148C331.926 116.148 331.642 116.139 330.693 116.096C329.816 116.056 329.339 115.909 329.022 115.786C328.602 115.623 328.302 115.428 327.987 115.113C327.672 114.798 327.477 114.498 327.314 114.078C327.191 113.761 327.044 113.284 327.004 112.407C326.961 111.458 326.952 111.173 326.952 108.77C326.952 106.367 326.961 106.082 327.004 105.133C327.044 104.256 327.191 103.779 327.314 103.462C327.477 103.042 327.672 102.742 327.987 102.427C328.302 102.112 328.602 101.917 329.022 101.754C329.339 101.631 329.816 101.484 330.693 101.444C331.642 101.401 331.927 101.392 334.33 101.392ZM334.33 99.77C331.886 99.77 331.579 99.78 330.619 99.824C329.661 99.868 329.007 100.02 328.435 100.242C327.843 100.472 327.341 100.78 326.841 101.281C326.341 101.781 326.033 102.283 325.803 102.875C325.58 103.447 325.428 104.101 325.384 105.059C325.34 106.019 325.33 106.326 325.33 108.77C325.33 111.214 325.34 111.521 325.384 112.481C325.428 113.439 325.58 114.093 325.802 114.666C326.032 115.258 326.34 115.76 326.84 116.26C327.34 116.76 327.842 117.068 328.434 117.298C329.006 117.52 329.661 117.673 330.619 117.716C331.579 117.76 331.886 117.77 334.33 117.77C336.774 117.77 337.081 117.76 338.041 117.716C338.999 117.672 339.653 117.52 340.226 117.298C340.818 117.068 341.32 116.76 341.82 116.26C342.32 115.76 342.628 115.258 342.858 114.666C343.08 114.094 343.233 113.439 343.276 112.481C343.32 111.521 343.33 111.214 343.33 108.77C343.33 106.326 343.32 106.019 343.276 105.059C343.232 104.101 343.08 103.447 342.858 102.874C342.628 102.282 342.32 101.78 341.82 101.28C341.32 100.78 340.818 100.472 340.226 100.242C339.654 100.02 338.999 99.867 338.041 99.824C337.081 99.78 336.774 99.77 334.33 99.77ZM334.33 104.148C331.778 104.148 329.708 106.217 329.708 108.77C329.708 111.323 331.778 113.392 334.33 113.392C336.882 113.392 338.952 111.323 338.952 108.77C338.952 106.217 336.882 104.148 334.33 104.148ZM334.33 111.77C332.673 111.77 331.33 110.427 331.33 108.77C331.33 107.113 332.673 105.77 334.33 105.77C335.987 105.77 337.33 107.113 337.33 108.77C337.33 110.427 335.987 111.77 334.33 111.77ZM339.134 102.886C338.538 102.886 338.054 103.37 338.054 103.966C338.054 104.562 338.538 105.046 339.134 105.046C339.73 105.046 340.214 104.562 340.214 103.966C340.214 103.37 339.731 102.886 339.134 102.886Z" fill="#17191F"/>
<path d="M374.33 98.77C368.807 98.77 364.33 103.247 364.33 108.77C364.33 113.189 367.195 116.936 371.169 118.259C371.669 118.349 371.851 118.041 371.851 117.775C371.851 117.539 371.842 116.909 371.837 116.076C369.055 116.678 368.468 114.736 368.468 114.736C368.013 113.579 367.358 113.271 367.358 113.271C366.449 112.651 367.427 112.663 367.427 112.663C368.431 112.734 368.959 113.693 368.959 113.693C369.85 115.222 371.3 114.782 371.869 114.526C371.96 113.879 372.218 113.44 372.504 113.189C370.284 112.938 367.949 112.078 367.949 108.246C367.949 107.155 368.339 106.262 368.979 105.564C368.876 105.31 368.532 104.294 369.076 102.918C369.076 102.918 369.916 102.649 371.826 103.943C372.625 103.72 373.48 103.61 374.33 103.606C375.18 103.61 376.035 103.72 376.834 103.942C378.743 102.648 379.582 102.917 379.582 102.917C380.128 104.293 379.784 105.311 379.682 105.563C380.322 106.262 380.708 107.154 380.708 108.245C380.708 112.086 378.371 112.932 376.143 113.18C376.502 113.487 376.822 114.097 376.822 115.032C376.822 116.367 376.81 117.447 376.81 117.773C376.81 118.042 376.99 118.352 377.498 118.254C381.468 116.931 384.33 113.186 384.33 108.77C384.33 103.247 379.853 98.77 374.33 98.77Z" fill="#17191F"/>
<path d="M424.13 104.771C424.13 104.771 423.935 103.393 423.335 102.786C422.575 101.989 421.722 101.985 421.331 101.939C418.532 101.737 414.334 101.737 414.334 101.737H414.325C414.325 101.737 410.127 101.737 407.328 101.939C406.938 101.986 406.086 101.99 405.325 102.786C404.725 103.393 404.53 104.771 404.53 104.771C404.53 104.771 404.33 106.39 404.33 108.008V109.525C404.33 111.143 404.53 112.762 404.53 112.762C404.53 112.762 404.725 114.14 405.325 114.747C406.086 115.544 407.085 115.518 407.53 115.602C409.13 115.755 414.33 115.803 414.33 115.803C414.33 115.803 418.533 115.797 421.331 115.594C421.722 115.547 422.574 115.543 423.335 114.747C423.935 114.14 424.13 112.762 424.13 112.762C424.13 112.762 424.33 111.144 424.33 109.525V108.008C424.33 106.39 424.13 104.771 424.13 104.771ZM412.265 111.364L412.264 105.744L417.668 108.564L412.265 111.364Z" fill="#17191F"/>
</svg>
