<svg width="305" height="172" viewBox="0 0 305 172" fill="none" xmlns="http://www.w3.org/2000/svg">
<path d="M183 77.3804H82.0039V145.175H183V77.3804Z" fill="#070808" stroke="black" stroke-width="1.1465"/>
<path d="M178.996 73.7939H78V141.588H178.996V73.7939Z" fill="white" stroke="black" stroke-width="1.1465"/>
<path d="M86.454 83.1625C87.7488 83.1625 88.7985 82.1127 88.7985 80.8179C88.7985 79.523 87.7488 78.4733 86.454 78.4733C85.1591 78.4733 84.1094 79.523 84.1094 80.8179C84.1094 82.1127 85.1591 83.1625 86.454 83.1625Z" fill="black"/>
<path d="M93.787 83.1625C95.0819 83.1625 96.1316 82.1127 96.1316 80.8179C96.1316 79.523 95.0819 78.4733 93.787 78.4733C92.4921 78.4733 91.4424 79.523 91.4424 80.8179C91.4424 82.1127 92.4921 83.1625 93.787 83.1625Z" fill="black"/>
<path d="M101.118 83.1625C102.413 83.1625 103.463 82.1127 103.463 80.8179C103.463 79.523 102.413 78.4733 101.118 78.4733C99.8231 78.4733 98.7734 79.523 98.7734 80.8179C98.7734 82.1127 99.8231 83.1625 101.118 83.1625Z" fill="black"/>
<path d="M107.136 87.8959L84.1074 87.9465L84.2107 134.958L107.239 134.907L107.136 87.8959Z" fill="#070808" stroke="black" stroke-width="1.1465"/>
<path d="M141.97 123.279L142.854 125.107L142.596 127.123L144.434 126.239L146.45 126.478L145.566 124.65L145.824 122.623L143.987 123.517L141.97 123.279Z" fill="#070808"/>
<path d="M138.533 109.022L133.744 112.38L139.576 112.589L137.678 118.123L142.526 114.864L144.235 120.447L146.252 114.963L150.921 118.48L149.322 112.857L155.163 112.967L150.564 109.36L155.352 106.002L149.511 105.794L151.418 100.26L146.56 103.519L144.851 97.9353L142.844 103.419L138.175 99.9024L139.774 105.525L133.933 105.416L138.533 109.022Z" fill="black"/>
<path d="M105.33 146.576L143.589 107.572C143.947 107.204 144.513 107.115 144.96 107.363C145.188 107.483 147.195 108.605 147.463 110.423C147.513 110.781 147.394 111.148 147.145 111.407C109.046 150.261 108.937 150.301 108.539 150.42C108.499 150.43 108.43 150.45 108.341 150.46C108.082 150.49 107.615 150.46 106.88 150.023C105.897 149.437 105.211 148.563 105.022 147.629C104.943 147.251 105.052 146.854 105.33 146.576Z" fill="#070808"/>
<path d="M144.533 108.148C146.003 108.844 146.54 110.443 146.57 110.513L146.619 110.662L139.546 117.874L139.387 117.527C138.811 116.215 137.569 115.738 137.42 115.689L137.022 115.56L144.364 108.069L144.533 108.148Z" fill="white" stroke="#070808" stroke-width="0.5732" stroke-miterlimit="10"/>
<path d="M115.097 142.463C115.097 142.463 113.636 141.976 112.981 140.476L106.255 147.251C106.255 147.251 106.752 148.801 108.142 149.477L115.097 142.463Z" fill="white"/>
<path d="M154.478 117.219L155.064 118.441L154.895 119.782L156.107 119.196L157.448 119.355L156.862 118.133L157.031 116.791L155.819 117.378L154.478 117.219Z" fill="black"/>
<path d="M124.484 107.026L125.676 109.509L125.339 112.241L127.803 111.039L130.535 111.367L129.342 108.883L129.69 106.161L127.216 107.353L124.484 107.026Z" fill="black"/>
<path d="M110.219 87.8416L110.318 134.902L173.284 134.833L173.175 87.7721L110.219 87.8416Z" stroke="black" stroke-width="1.1465"/>
</svg>
